# xmcd
#
# Track frame offsets:
#	150
#	11017
#	25296
#	39213
#	52072
#	64695
#	78500
#	94161
#	104564
#	116635
#
# Disc length: 1722 seconds
#
# Revision: 1
# Processed by: cddbd v1.5.2PL0 Copyright (c) Steve Scherf et al.
# Submitted via: audiograbber 1.81.03
#
DISCID=7f06b80a
DTITLE=Curtis`Potter]p[Ray`Sanders]p[Darrell`McCall - Texas Dance Hall Music
DYEAR=2007
DGENRE=Country
TTITLE0=San Antonio Medley]p[Home In San Antone]p[San Antonio Rose]p[There's St
TTITLE0=ill A Lot Of Love In San Antone
TTITLE1=Soft Rain
TTITLE2=Crazy Arms
TTITLE3=It's the Cheating She Loves
TTITLE4=One More Rose
TTITLE5=Fraulein
TTITLE6=Under Your Spell Again
TTITLE7=Crazy
TTITLE8=Champagne Ladies And Blue Ribbon Babies
TTITLE9=Beer Drinking Music
EXTD=
EXTT0=
EXTT1=
EXTT2=
EXTT3=
EXTT4=
EXTT5=
EXTT6=
EXTT7=
EXTT8=
EXTT9=
PLAYORDER=
